<svg xmlns="http://www.w3.org/2000/svg" viewBox="0 0 900 900" width="900" height="900"><defs>
<filter id="sh" x="-30%" y="-30%" width="160%" height="180%"><feGaussianBlur stdDeviation="16"/></filter>
<linearGradient id="blk" x1="0" y1="0" x2="0" y2="1"><stop offset="0" stop-color="#34363f"/><stop offset="1" stop-color="#15161b"/></linearGradient>
<linearGradient id="blk2" x1="0" y1="0" x2="1" y2="0"><stop offset="0" stop-color="#15161b"/><stop offset=".5" stop-color="#2d2f38"/><stop offset="1" stop-color="#15161b"/></linearGradient>
<linearGradient id="org" x1="0" y1="0" x2="0" y2="1"><stop offset="0" stop-color="#ff7d40"/><stop offset="1" stop-color="#e24a0c"/></linearGradient>
<linearGradient id="gry" x1="0" y1="0" x2="0" y2="1"><stop offset="0" stop-color="#eceef2"/><stop offset="1" stop-color="#b3b6c1"/></linearGradient>
</defs><ellipse cx="450" cy="750" rx="290" ry="26" fill="#000" opacity=".28" filter="url(#sh)"/>
<path d="M345 230 L195 290 L118 572 L214 602 L274 410 L274 724 L626 724 L626 410 L686 602 L782 572 L705 290 L555 230 Q450 300 345 230 Z" fill="url(#blk)"/>
<path d="M345 230 Q300 110 450 100 Q600 110 555 230 Q450 310 345 230 Z" fill="url(#blk)" stroke="#00000033" stroke-width="3"/>
<path d="M378 214 Q450 262 522 214 Q532 150 450 142 Q368 150 378 214 Z" fill="#07080a"/>
<path d="M418 262 L412 372" stroke="#ff5f1f" stroke-width="8" stroke-linecap="round"/><path d="M482 262 L488 372" stroke="#ff5f1f" stroke-width="8" stroke-linecap="round"/>
<circle cx="412" cy="378" r="9" fill="#ff5f1f"/><circle cx="488" cy="378" r="9" fill="#ff5f1f"/>
<path d="M330 560 H570 L612 706 H288 Z" fill="#00000026" stroke="#00000040" stroke-width="3"/>
<rect x="118" y="560" width="96" height="46" rx="10" fill="#00000030" transform="rotate(16 166 583)"/><rect x="686" y="560" width="96" height="46" rx="10" fill="#00000030" transform="rotate(-16 734 583)"/>
<rect x="274" y="700" width="352" height="24" fill="#00000030"/><circle cx="450" cy="470" r="30" fill="url(#org)"/><text x="450" y="480.8" text-anchor="middle" font-family="Inter, 'Segoe UI', Helvetica, Arial, sans-serif" font-weight="900" font-size="33.0" fill="#fff">K</text></svg>