<svg xmlns="http://www.w3.org/2000/svg" viewBox="0 0 900 900" width="900" height="900"><defs>
<filter id="sh" x="-30%" y="-30%" width="160%" height="180%"><feGaussianBlur stdDeviation="16"/></filter>
<linearGradient id="blk" x1="0" y1="0" x2="0" y2="1"><stop offset="0" stop-color="#34363f"/><stop offset="1" stop-color="#15161b"/></linearGradient>
<linearGradient id="blk2" x1="0" y1="0" x2="1" y2="0"><stop offset="0" stop-color="#15161b"/><stop offset=".5" stop-color="#2d2f38"/><stop offset="1" stop-color="#15161b"/></linearGradient>
<linearGradient id="org" x1="0" y1="0" x2="0" y2="1"><stop offset="0" stop-color="#ff7d40"/><stop offset="1" stop-color="#e24a0c"/></linearGradient>
<linearGradient id="gry" x1="0" y1="0" x2="0" y2="1"><stop offset="0" stop-color="#eceef2"/><stop offset="1" stop-color="#b3b6c1"/></linearGradient>
</defs><ellipse cx="450" cy="780" rx="190" ry="26" fill="#000" opacity=".28" filter="url(#sh)"/>
<rect x="385" y="120" width="130" height="72" rx="20" fill="url(#blk)"/>
<rect x="408" y="186" width="84" height="64" rx="10" fill="#c9cbd4"/>
<path d="M360 250 H540 Q574 250 574 292 V712 Q574 764 522 764 H378 Q326 764 326 712 V292 Q326 250 360 250 Z" fill="url(#org)"/>
<rect x="350" y="284" width="22" height="436" rx="11" fill="#ffffff" opacity=".14"/>
<rect x="326" y="440" width="248" height="78" fill="#16171c"/><circle cx="450" cy="360" r="44" fill="#16171c"/><text x="450" y="375.84" text-anchor="middle" font-family="Inter, 'Segoe UI', Helvetica, Arial, sans-serif" font-weight="900" font-size="48.400000000000006" fill="#ff7d40">K</text><text x="450" y="492" text-anchor="middle" font-family="Inter, 'Segoe UI', Helvetica, Arial, sans-serif" font-weight="900" font-size="38" letter-spacing="8" fill="#ff7d40" >KUKIRIN</text><text x="450" y="632" text-anchor="middle" font-family="Inter, 'Segoe UI', Helvetica, Arial, sans-serif" font-weight="900" font-size="54" letter-spacing="8" fill="#16171c" >RIDE</text><text x="450" y="686" text-anchor="middle" font-family="Inter, 'Segoe UI', Helvetica, Arial, sans-serif" font-weight="800" font-size="30" letter-spacing="6" fill="#7a2605" >ELECTRIC</text></svg>