<svg xmlns="http://www.w3.org/2000/svg" viewBox="0 0 900 900" width="900" height="900"><defs>
<filter id="sh" x="-30%" y="-30%" width="160%" height="180%"><feGaussianBlur stdDeviation="16"/></filter>
<linearGradient id="blk" x1="0" y1="0" x2="0" y2="1"><stop offset="0" stop-color="#34363f"/><stop offset="1" stop-color="#15161b"/></linearGradient>
<linearGradient id="blk2" x1="0" y1="0" x2="1" y2="0"><stop offset="0" stop-color="#15161b"/><stop offset=".5" stop-color="#2d2f38"/><stop offset="1" stop-color="#15161b"/></linearGradient>
<linearGradient id="org" x1="0" y1="0" x2="0" y2="1"><stop offset="0" stop-color="#ff7d40"/><stop offset="1" stop-color="#e24a0c"/></linearGradient>
<linearGradient id="gry" x1="0" y1="0" x2="0" y2="1"><stop offset="0" stop-color="#eceef2"/><stop offset="1" stop-color="#b3b6c1"/></linearGradient>
</defs><ellipse cx="450" cy="662" rx="230" ry="26" fill="#000" opacity=".28" filter="url(#sh)"/>
<path d="M250 330 Q250 282 300 272 L600 272 Q650 282 650 330 L692 560 Q698 624 640 628 L260 628 Q202 624 208 560 Z" fill="url(#blk)"/>
<path d="M262 345 H638" stroke="url(#org)" stroke-width="9" stroke-linecap="round"/>
<rect x="590" y="326" width="30" height="40" rx="12" fill="url(#org)"/>
<rect x="296" y="440" width="308" height="132" rx="36" fill="#1b1c22" stroke="#3a3c46" stroke-width="3"/>
<path d="M320 462 H580" stroke="#ff5f1f" stroke-width="5" stroke-linecap="round" opacity=".85"/>
<circle cx="450" cy="522" r="30" fill="url(#org)"/><text x="450" y="532.8" text-anchor="middle" font-family="Inter, 'Segoe UI', Helvetica, Arial, sans-serif" font-weight="900" font-size="33.0" fill="#fff">K</text>
<rect x="320" y="226" width="44" height="64" rx="10" fill="#24262e"/><rect x="536" y="226" width="44" height="64" rx="10" fill="#24262e"/>
<rect x="324" y="250" width="36" height="14" rx="4" fill="url(#org)"/><rect x="540" y="250" width="36" height="14" rx="4" fill="url(#org)"/></svg>